<svg xmlns="http://www.w3.org/2000/svg" viewBox="0 0 650 634" width="650" height="634">
  
  <path d="M 324 446 L 324 447 L 323 448 L 322 449 L 321 450 L 320 451 L 319 452 L 318 453 L 317 454 L 316 455 L 315 456 L 314 457 L 313 458 L 312 459 L 311 460 L 310 461 L 309 462 L 308 463 L 307 463 L 307 464 L 306 465 L 305 465 L 305 466 L 304 467 L 303 468 L 302 469 L 301 470 L 300 471 L 299 472 L 298 473 L 297 474 L 296 475 L 295 476 L 294 477 L 293 478 L 292 479 L 291 480 L 290 481 L 289 482 L 288 483 L 287 484 L 286 485 L 286 486 L 286 487 L 285 488 L 284 488 L 284 489 L 284 490 L 283 491 L 282 492 L 282 493 L 281 494 L 281 495 L 280 496 L 280 497 L 280 498 L 279 499 L 279 500 L 279 501 L 278 502 L 278 503 L 278 504 L 278 505 L 278 506 L 277 507 L 277 508 L 277 509 L 277 510 L 277 511 L 277 512 L 277 513 L 277 514 L 277 515 L 277 516 L 277 517 L 277 518 L 277 519 L 277 520 L 277 521 L 277 522 L 278 523 L 278 524 L 278 525 L 278 526 L 278 527 L 279 528 L 279 529 L 280 530 L 280 531 L 280 532 L 280 533 L 281 534 L 281 535 L 282 536 L 282 537 L 283 538 L 284 539 L 284 540 L 284 541 L 285 542 L 286 543 L 287 544 L 288 545 L 288 546 L 289 547 L 290 548 L 291 549 L 292 550 L 293 551 L 294 552 L 295 553 L 296 554 L 297 555 L 298 556 L 299 557 L 300 558 L 301 559 L 302 560 L 303 561 L 304 562 L 305 563 L 306 564 L 307 565 L 308 566 L 309 567 L 310 568 L 311 569 L 312 570 L 313 571 L 314 572 L 315 573 L 316 574 L 317 575 L 318 576 L 319 577 L 320 578 L 321 579 L 322 580 L 323 581 L 324 582 L 325 583 L 326 582 L 327 582 L 328 581 L 329 580 L 330 579 L 331 578 L 332 577 L 333 576 L 334 575 L 335 574 L 336 573 L 337 572 L 338 571 L 339 570 L 340 569 L 341 568 L 342 567 L 343 566 L 344 565 L 345 564 L 346 563 L 347 562 L 348 561 L 349 560 L 350 559 L 351 558 L 352 557 L 353 556 L 354 555 L 355 554 L 356 553 L 357 552 L 358 551 L 359 550 L 360 549 L 361 548 L 361 547 L 362 546 L 363 546 L 363 545 L 364 544 L 365 543 L 365 542 L 366 541 L 367 540 L 367 539 L 368 538 L 369 537 L 369 536 L 369 535 L 370 534 L 371 533 L 371 532 L 371 531 L 371 530 L 372 529 L 372 528 L 373 527 L 373 526 L 373 525 L 373 524 L 373 523 L 374 522 L 374 521 L 374 520 L 374 519 L 374 518 L 374 517 L 374 516 L 374 515 L 374 514 L 374 513 L 374 512 L 374 511 L 374 510 L 374 509 L 374 508 L 374 507 L 373 506 L 373 505 L 373 504 L 373 503 L 373 502 L 372 501 L 372 500 L 372 499 L 371 498 L 371 497 L 371 496 L 370 495 L 370 494 L 369 493 L 369 492 L 368 491 L 368 490 L 367 489 L 367 488 L 366 487 L 365 486 L 365 485 L 364 484 L 363 483 L 362 482 L 361 481 L 360 480 L 359 479 L 358 478 L 357 477 L 356 476 L 355 475 L 354 474 L 353 473 L 352 472 L 351 471 L 350 470 L 349 469 L 348 468 L 348 467 L 347 467 L 346 466 L 345 465 L 344 464 L 343 463 L 342 462 L 341 461 L 340 460 L 339 459 L 338 458 L 337 457 L 336 456 L 335 455 L 334 454 L 333 453 L 332 452 L 331 451 L 330 450 L 329 449 L 328 448 L 327 447 L 327 446 L 326 446 L 325 446 Z M 324 488 L 325 487 L 326 487 L 327 488 L 328 489 L 329 490 L 330 491 L 331 492 L 332 493 L 333 494 L 333 495 L 334 495 L 335 496 L 335 497 L 336 497 L 337 498 L 338 499 L 339 500 L 340 501 L 341 502 L 341 503 L 342 504 L 343 505 L 343 506 L 344 507 L 344 508 L 344 509 L 345 510 L 345 511 L 345 512 L 345 513 L 345 514 L 345 515 L 345 516 L 345 517 L 345 518 L 344 519 L 344 520 L 344 521 L 343 522 L 343 523 L 343 524 L 342 525 L 341 526 L 340 527 L 339 528 L 338 529 L 337 530 L 336 531 L 335 532 L 334 533 L 333 534 L 332 535 L 331 536 L 330 537 L 329 538 L 328 539 L 327 540 L 326 541 L 325 541 L 324 540 L 323 539 L 322 538 L 321 537 L 320 536 L 319 535 L 318 534 L 317 533 L 316 532 L 315 531 L 314 530 L 313 529 L 312 528 L 311 527 L 310 526 L 309 525 L 308 524 L 308 523 L 308 522 L 307 521 L 307 520 L 307 519 L 306 518 L 306 517 L 306 516 L 306 515 L 306 514 L 306 513 L 306 512 L 306 511 L 306 510 L 307 509 L 307 508 L 307 507 L 308 506 L 308 505 L 309 504 L 310 503 L 310 502 L 311 501 L 312 500 L 313 499 L 314 498 L 315 497 L 316 496 L 317 495 L 318 494 L 319 493 L 320 492 L 321 491 L 322 491 L 322 490 L 323 489 Z M 264 309 L 263 310 L 262 310 L 261 310 L 260 310 L 259 310 L 258 310 L 257 310 L 256 310 L 255 310 L 254 310 L 253 310 L 252 310 L 251 310 L 250 310 L 249 310 L 248 310 L 247 310 L 246 310 L 245 310 L 244 310 L 243 310 L 242 310 L 241 310 L 240 310 L 239 310 L 238 310 L 237 310 L 236 310 L 235 310 L 234 310 L 233 310 L 232 310 L 231 310 L 230 310 L 229 310 L 228 310 L 227 310 L 226 310 L 225 310 L 224 310 L 223 310 L 222 310 L 221 310 L 220 310 L 219 310 L 218 310 L 217 310 L 216 311 L 215 311 L 214 312 L 213 312 L 212 312 L 211 312 L 210 312 L 209 312 L 208 313 L 207 313 L 206 314 L 205 314 L 204 314 L 203 314 L 202 314 L 201 315 L 200 316 L 199 316 L 198 316 L 197 316 L 196 317 L 195 318 L 194 318 L 193 318 L 192 319 L 191 319 L 190 320 L 189 321 L 188 321 L 187 322 L 186 322 L 185 323 L 184 324 L 183 325 L 182 325 L 181 326 L 180 327 L 179 327 L 178 328 L 177 329 L 176 329 L 175 330 L 174 331 L 173 332 L 172 333 L 171 334 L 170 335 L 169 336 L 168 337 L 167 338 L 167 339 L 166 340 L 165 340 L 165 341 L 164 342 L 163 343 L 162 344 L 161 345 L 161 346 L 160 347 L 159 348 L 159 349 L 158 350 L 157 351 L 157 352 L 156 353 L 156 354 L 155 355 L 154 356 L 154 357 L 154 358 L 153 359 L 152 360 L 152 361 L 152 362 L 152 363 L 151 364 L 150 365 L 150 366 L 150 367 L 150 368 L 149 369 L 149 370 L 148 371 L 148 372 L 148 373 L 148 374 L 147 375 L 147 376 L 147 377 L 146 378 L 146 379 L 146 380 L 146 381 L 146 382 L 146 383 L 146 384 L 145 385 L 145 386 L 145 387 L 145 388 L 145 389 L 145 390 L 145 391 L 145 392 L 145 393 L 145 394 L 145 395 L 145 396 L 145 397 L 144 398 L 144 399 L 144 400 L 144 401 L 144 402 L 144 403 L 144 404 L 144 405 L 144 406 L 144 407 L 144 408 L 144 409 L 144 410 L 144 411 L 144 412 L 144 413 L 144 414 L 144 415 L 144 416 L 144 417 L 144 418 L 144 419 L 144 420 L 144 421 L 144 422 L 144 423 L 144 424 L 144 425 L 144 426 L 144 427 L 144 428 L 144 429 L 144 430 L 144 431 L 144 432 L 144 433 L 144 434 L 144 435 L 144 436 L 144 437 L 144 438 L 144 439 L 144 440 L 144 441 L 144 442 L 144 443 L 144 444 L 144 445 L 144 446 L 144 447 L 144 448 L 144 449 L 144 450 L 144 451 L 144 452 L 144 453 L 144 454 L 144 455 L 144 456 L 144 457 L 144 458 L 144 459 L 144 460 L 144 461 L 144 462 L 144 463 L 144 464 L 144 465 L 144 466 L 144 467 L 144 468 L 144 469 L 144 470 L 144 471 L 144 472 L 144 473 L 144 474 L 144 475 L 144 476 L 144 477 L 144 478 L 144 479 L 144 480 L 144 481 L 145 482 L 145 483 L 146 484 L 147 484 L 148 484 L 149 483 L 150 484 L 151 484 L 152 484 L 153 484 L 154 484 L 155 484 L 156 484 L 157 484 L 158 484 L 159 484 L 160 484 L 161 484 L 162 484 L 163 484 L 164 484 L 165 484 L 166 484 L 167 484 L 168 484 L 169 484 L 170 484 L 171 484 L 172 484 L 173 484 L 174 484 L 175 484 L 176 484 L 177 484 L 178 484 L 179 484 L 180 484 L 181 484 L 182 484 L 183 484 L 184 484 L 185 484 L 186 484 L 187 484 L 188 484 L 189 484 L 190 484 L 191 484 L 192 484 L 193 484 L 194 484 L 195 484 L 196 484 L 197 484 L 198 484 L 199 484 L 200 484 L 201 484 L 202 484 L 203 484 L 204 484 L 205 484 L 206 484 L 207 484 L 208 484 L 209 484 L 210 484 L 211 484 L 212 484 L 213 484 L 214 484 L 215 484 L 216 484 L 217 484 L 218 484 L 219 484 L 220 484 L 221 484 L 222 484 L 223 484 L 224 484 L 225 484 L 226 484 L 227 484 L 228 484 L 229 484 L 230 484 L 231 484 L 232 484 L 233 484 L 234 484 L 235 483 L 236 483 L 237 483 L 238 483 L 239 483 L 240 483 L 241 483 L 242 483 L 243 483 L 244 482 L 245 482 L 246 482 L 247 482 L 248 482 L 249 482 L 250 482 L 251 481 L 252 481 L 253 481 L 254 480 L 255 480 L 256 480 L 257 480 L 258 480 L 259 479 L 260 479 L 261 478 L 262 478 L 263 478 L 264 477 L 265 477 L 266 476 L 267 476 L 268 476 L 269 475 L 270 474 L 271 474 L 272 474 L 273 473 L 274 472 L 275 472 L 276 471 L 277 471 L 278 470 L 279 469 L 280 469 L 281 468 L 282 467 L 283 467 L 284 466 L 285 465 L 286 464 L 287 463 L 288 463 L 289 462 L 290 461 L 291 460 L 292 459 L 293 458 L 294 457 L 295 456 L 296 455 L 297 454 L 297 453 L 298 452 L 299 452 L 299 451 L 300 450 L 301 449 L 301 448 L 302 447 L 303 446 L 303 445 L 304 444 L 305 443 L 306 442 L 306 441 L 307 440 L 307 439 L 308 438 L 309 437 L 309 436 L 310 435 L 310 434 L 310 433 L 311 432 L 311 431 L 312 430 L 312 429 L 312 428 L 313 427 L 313 426 L 314 425 L 314 424 L 314 423 L 314 422 L 315 421 L 315 420 L 316 419 L 316 418 L 316 417 L 316 416 L 316 415 L 316 414 L 317 413 L 317 412 L 317 411 L 318 410 L 318 409 L 318 408 L 318 407 L 318 406 L 318 405 L 318 404 L 318 403 L 318 402 L 318 401 L 318 400 L 318 399 L 318 398 L 318 397 L 318 396 L 318 395 L 318 394 L 318 393 L 318 392 L 318 391 L 318 390 L 318 389 L 318 388 L 318 387 L 318 386 L 318 385 L 318 384 L 318 383 L 318 382 L 318 381 L 318 380 L 318 379 L 318 378 L 318 377 L 318 376 L 318 375 L 318 374 L 318 373 L 318 372 L 318 371 L 318 370 L 318 369 L 318 368 L 318 367 L 318 366 L 318 365 L 318 364 L 318 363 L 318 362 L 318 361 L 318 360 L 318 359 L 318 358 L 318 357 L 318 356 L 318 355 L 318 354 L 318 353 L 318 352 L 318 351 L 318 350 L 319 349 L 320 348 L 321 348 L 322 348 L 323 348 L 324 348 L 325 348 L 326 348 L 327 348 L 328 348 L 329 348 L 330 348 L 331 348 L 332 349 L 333 350 L 333 351 L 333 352 L 333 353 L 333 354 L 333 355 L 333 356 L 333 357 L 333 358 L 333 359 L 333 360 L 333 361 L 333 362 L 333 363 L 333 364 L 333 365 L 333 366 L 333 367 L 333 368 L 333 369 L 333 370 L 333 371 L 333 372 L 333 373 L 333 374 L 333 375 L 333 376 L 333 377 L 333 378 L 333 379 L 333 380 L 333 381 L 333 382 L 333 383 L 333 384 L 333 385 L 333 386 L 333 387 L 333 388 L 333 389 L 333 390 L 333 391 L 333 392 L 333 393 L 333 394 L 333 395 L 333 396 L 333 397 L 333 398 L 333 399 L 333 400 L 333 401 L 333 402 L 333 403 L 333 404 L 333 405 L 333 406 L 333 407 L 333 408 L 333 409 L 333 410 L 334 411 L 334 412 L 334 413 L 334 414 L 335 415 L 335 416 L 335 417 L 335 418 L 335 419 L 336 420 L 336 421 L 337 422 L 337 423 L 337 424 L 337 425 L 338 426 L 338 427 L 339 428 L 339 429 L 339 430 L 340 431 L 340 432 L 341 433 L 341 434 L 342 435 L 342 436 L 343 437 L 343 438 L 344 439 L 344 440 L 345 441 L 345 442 L 346 443 L 347 444 L 348 445 L 348 446 L 349 447 L 350 448 L 350 449 L 351 450 L 352 451 L 352 452 L 353 452 L 354 453 L 354 454 L 355 455 L 356 456 L 357 457 L 358 458 L 359 459 L 360 460 L 361 461 L 362 462 L 363 463 L 364 463 L 365 464 L 366 465 L 367 466 L 368 467 L 369 467 L 370 468 L 371 469 L 372 469 L 373 470 L 374 470 L 375 471 L 376 472 L 377 472 L 378 473 L 379 474 L 380 474 L 381 474 L 382 475 L 383 476 L 384 476 L 385 476 L 386 477 L 387 477 L 388 478 L 389 478 L 390 478 L 391 479 L 392 479 L 393 480 L 394 480 L 395 480 L 396 480 L 397 480 L 398 481 L 399 481 L 400 481 L 401 482 L 402 482 L 403 482 L 404 482 L 405 482 L 406 482 L 407 482 L 408 483 L 409 483 L 410 483 L 411 483 L 412 483 L 413 483 L 414 483 L 415 483 L 416 483 L 417 483 L 418 483 L 419 483 L 420 483 L 421 484 L 422 484 L 423 484 L 424 484 L 425 484 L 426 484 L 427 484 L 428 484 L 429 484 L 430 484 L 431 484 L 432 484 L 433 484 L 434 484 L 435 484 L 436 484 L 437 484 L 438 484 L 439 484 L 440 484 L 441 484 L 442 484 L 443 484 L 444 484 L 445 484 L 446 484 L 447 484 L 448 484 L 449 484 L 450 484 L 451 484 L 452 484 L 453 484 L 454 484 L 455 484 L 456 484 L 457 484 L 458 484 L 459 484 L 460 484 L 461 484 L 462 484 L 463 484 L 464 484 L 465 484 L 466 484 L 467 484 L 468 484 L 469 484 L 470 484 L 471 484 L 472 484 L 473 484 L 474 484 L 475 484 L 476 484 L 477 484 L 478 484 L 479 484 L 480 484 L 481 484 L 482 484 L 483 484 L 484 484 L 485 484 L 486 484 L 487 484 L 488 484 L 489 484 L 490 484 L 491 484 L 492 484 L 493 484 L 494 484 L 495 484 L 496 484 L 497 484 L 498 484 L 499 484 L 500 484 L 501 484 L 502 484 L 503 484 L 504 484 L 505 484 L 506 483 L 506 482 L 507 481 L 507 480 L 507 479 L 507 478 L 507 477 L 507 476 L 507 475 L 507 474 L 507 473 L 507 472 L 507 471 L 507 470 L 507 469 L 507 468 L 507 467 L 507 466 L 507 465 L 507 464 L 507 463 L 507 462 L 507 461 L 507 460 L 507 459 L 507 458 L 507 457 L 507 456 L 507 455 L 507 454 L 507 453 L 507 452 L 507 451 L 507 450 L 507 449 L 507 448 L 507 447 L 507 446 L 507 445 L 507 444 L 507 443 L 507 442 L 507 441 L 507 440 L 507 439 L 507 438 L 507 437 L 507 436 L 507 435 L 507 434 L 507 433 L 507 432 L 507 431 L 507 430 L 507 429 L 507 428 L 507 427 L 507 426 L 507 425 L 507 424 L 507 423 L 507 422 L 507 421 L 507 420 L 507 419 L 507 418 L 507 417 L 507 416 L 507 415 L 507 414 L 507 413 L 507 412 L 507 411 L 507 410 L 507 409 L 507 408 L 507 407 L 507 406 L 507 405 L 507 404 L 507 403 L 507 402 L 507 401 L 507 400 L 507 399 L 507 398 L 507 397 L 507 396 L 506 395 L 506 394 L 506 393 L 506 392 L 506 391 L 506 390 L 506 389 L 506 388 L 506 387 L 506 386 L 506 385 L 505 384 L 505 383 L 505 382 L 505 381 L 505 380 L 505 379 L 505 378 L 504 377 L 504 376 L 504 375 L 503 374 L 503 373 L 503 372 L 503 371 L 503 370 L 502 369 L 501 368 L 501 367 L 501 366 L 501 365 L 500 364 L 500 363 L 499 362 L 499 361 L 499 360 L 498 359 L 497 358 L 497 357 L 496 356 L 496 355 L 495 354 L 495 353 L 494 352 L 493 351 L 493 350 L 492 349 L 492 348 L 491 347 L 490 346 L 490 345 L 489 344 L 488 343 L 487 342 L 486 341 L 486 340 L 485 339 L 484 338 L 483 337 L 482 336 L 481 335 L 480 334 L 479 333 L 478 332 L 477 331 L 476 331 L 475 330 L 475 329 L 474 329 L 473 328 L 472 327 L 471 327 L 470 326 L 469 325 L 468 324 L 467 324 L 466 323 L 465 322 L 464 322 L 463 321 L 462 321 L 461 320 L 460 319 L 459 319 L 458 318 L 457 318 L 456 318 L 455 317 L 454 316 L 453 316 L 452 316 L 451 316 L 450 315 L 449 315 L 448 314 L 447 314 L 446 314 L 445 314 L 444 313 L 443 312 L 442 312 L 441 312 L 440 312 L 439 312 L 438 312 L 437 311 L 436 311 L 435 311 L 434 311 L 433 310 L 432 310 L 431 310 L 430 310 L 429 310 L 428 310 L 427 310 L 426 310 L 425 310 L 424 310 L 423 310 L 422 310 L 421 310 L 420 310 L 419 310 L 418 310 L 417 310 L 416 310 L 415 310 L 414 310 L 413 310 L 412 310 L 411 310 L 410 310 L 409 310 L 408 310 L 407 310 L 406 310 L 405 310 L 404 310 L 403 310 L 402 310 L 401 310 L 400 310 L 399 310 L 398 310 L 397 310 L 396 310 L 395 310 L 394 310 L 393 310 L 392 310 L 391 310 L 390 310 L 389 310 L 388 310 L 387 310 L 386 310 L 385 311 L 385 312 L 385 313 L 385 314 L 385 315 L 385 316 L 385 317 L 385 318 L 385 319 L 385 320 L 385 321 L 385 322 L 385 323 L 385 324 L 385 325 L 385 326 L 385 327 L 385 328 L 385 329 L 385 330 L 385 331 L 385 332 L 385 333 L 385 334 L 385 335 L 385 336 L 385 337 L 385 338 L 385 339 L 385 340 L 385 341 L 385 342 L 385 343 L 385 344 L 385 345 L 385 346 L 385 347 L 386 348 L 387 348 L 388 348 L 389 348 L 390 348 L 391 348 L 392 348 L 393 348 L 394 348 L 395 348 L 396 348 L 397 348 L 398 348 L 399 348 L 400 348 L 401 348 L 402 348 L 403 348 L 404 348 L 405 348 L 406 348 L 407 348 L 408 348 L 409 348 L 410 348 L 411 348 L 412 348 L 413 348 L 414 348 L 415 348 L 416 348 L 417 348 L 418 348 L 419 348 L 420 348 L 421 348 L 422 348 L 423 348 L 424 348 L 425 348 L 426 348 L 427 349 L 428 349 L 429 349 L 430 349 L 431 350 L 432 350 L 433 350 L 434 350 L 435 351 L 436 351 L 437 352 L 438 352 L 439 352 L 440 353 L 441 353 L 442 354 L 443 354 L 444 355 L 445 355 L 446 356 L 447 357 L 448 358 L 449 359 L 450 359 L 451 360 L 452 361 L 453 362 L 454 363 L 455 364 L 456 365 L 457 366 L 458 367 L 458 368 L 459 369 L 460 370 L 460 371 L 461 372 L 462 373 L 462 374 L 463 375 L 463 376 L 464 377 L 464 378 L 465 379 L 465 380 L 465 381 L 465 382 L 466 383 L 466 384 L 467 385 L 467 386 L 467 387 L 467 388 L 467 389 L 467 390 L 467 391 L 467 392 L 468 393 L 468 394 L 468 395 L 468 396 L 468 397 L 468 398 L 468 399 L 468 400 L 468 401 L 468 402 L 468 403 L 468 404 L 468 405 L 468 406 L 468 407 L 468 408 L 468 409 L 468 410 L 468 411 L 468 412 L 468 413 L 468 414 L 468 415 L 468 416 L 468 417 L 468 418 L 468 419 L 468 420 L 468 421 L 468 422 L 468 423 L 468 424 L 468 425 L 468 426 L 468 427 L 468 428 L 468 429 L 468 430 L 468 431 L 468 432 L 468 433 L 468 434 L 468 435 L 468 436 L 468 437 L 468 438 L 468 439 L 468 440 L 468 441 L 468 442 L 468 443 L 467 444 L 466 445 L 465 445 L 464 445 L 463 445 L 462 445 L 461 445 L 460 445 L 459 445 L 458 445 L 457 445 L 456 445 L 455 445 L 454 445 L 453 445 L 452 445 L 451 445 L 450 445 L 449 445 L 448 445 L 447 445 L 446 445 L 445 445 L 444 445 L 443 445 L 442 445 L 441 445 L 440 445 L 439 445 L 438 445 L 437 445 L 436 445 L 435 445 L 434 445 L 433 445 L 432 445 L 431 445 L 430 445 L 429 445 L 428 445 L 427 445 L 426 445 L 425 445 L 424 445 L 423 445 L 422 445 L 421 445 L 420 445 L 419 445 L 418 445 L 417 445 L 416 445 L 415 444 L 414 444 L 413 444 L 412 444 L 411 444 L 410 444 L 409 444 L 408 444 L 407 443 L 406 443 L 405 442 L 404 442 L 403 442 L 402 442 L 401 441 L 400 440 L 399 440 L 398 440 L 397 439 L 396 439 L 395 438 L 394 437 L 393 437 L 392 436 L 391 435 L 390 435 L 389 434 L 388 433 L 387 432 L 386 431 L 385 430 L 384 429 L 383 428 L 382 427 L 381 426 L 380 425 L 380 424 L 379 423 L 378 422 L 378 421 L 377 420 L 377 419 L 376 418 L 376 417 L 375 416 L 375 415 L 374 414 L 374 413 L 374 412 L 373 411 L 373 410 L 373 409 L 372 408 L 372 407 L 372 406 L 372 405 L 372 404 L 371 403 L 371 402 L 371 401 L 371 400 L 371 399 L 371 398 L 371 397 L 371 396 L 371 395 L 371 394 L 371 393 L 371 392 L 371 391 L 371 390 L 371 389 L 371 388 L 371 387 L 371 386 L 371 385 L 371 384 L 371 383 L 371 382 L 371 381 L 371 380 L 371 379 L 371 378 L 371 377 L 371 376 L 371 375 L 371 374 L 371 373 L 371 372 L 371 371 L 371 370 L 371 369 L 371 368 L 371 367 L 371 366 L 371 365 L 371 364 L 371 363 L 371 362 L 371 361 L 371 360 L 371 359 L 371 358 L 371 357 L 371 356 L 371 355 L 371 354 L 371 353 L 371 352 L 371 351 L 371 350 L 371 349 L 371 348 L 371 347 L 371 346 L 371 345 L 371 344 L 371 343 L 371 342 L 371 341 L 371 340 L 371 339 L 371 338 L 371 337 L 371 336 L 371 335 L 371 334 L 371 333 L 371 332 L 371 331 L 371 330 L 371 329 L 371 328 L 371 327 L 371 326 L 371 325 L 371 324 L 371 323 L 371 322 L 371 321 L 371 320 L 371 319 L 371 318 L 371 317 L 371 316 L 371 315 L 371 314 L 371 313 L 371 312 L 371 311 L 371 310 L 370 310 L 369 310 L 368 310 L 367 310 L 366 310 L 365 310 L 364 310 L 363 310 L 362 310 L 361 310 L 360 310 L 359 310 L 358 310 L 357 310 L 356 310 L 355 310 L 354 310 L 353 310 L 352 310 L 351 310 L 350 310 L 349 310 L 348 310 L 347 310 L 346 310 L 345 310 L 344 310 L 343 310 L 342 310 L 341 310 L 340 310 L 339 310 L 338 310 L 337 310 L 336 310 L 335 310 L 334 310 L 333 310 L 332 310 L 331 310 L 330 310 L 329 310 L 328 310 L 327 310 L 326 310 L 325 310 L 324 310 L 323 310 L 322 310 L 321 310 L 320 310 L 319 310 L 318 310 L 317 310 L 316 310 L 315 310 L 314 310 L 313 310 L 312 310 L 311 310 L 310 310 L 309 310 L 308 310 L 307 310 L 306 310 L 305 310 L 304 310 L 303 310 L 302 310 L 301 310 L 300 310 L 299 310 L 298 310 L 297 310 L 296 310 L 295 310 L 294 310 L 293 310 L 292 310 L 291 310 L 290 310 L 289 310 L 288 310 L 287 310 L 286 310 L 285 310 L 284 310 L 283 310 L 282 310 L 281 310 L 280 310 L 280 311 L 280 312 L 280 313 L 280 314 L 280 315 L 280 316 L 280 317 L 280 318 L 280 319 L 280 320 L 280 321 L 280 322 L 280 323 L 280 324 L 280 325 L 280 326 L 280 327 L 280 328 L 280 329 L 280 330 L 280 331 L 280 332 L 280 333 L 280 334 L 280 335 L 280 336 L 280 337 L 280 338 L 280 339 L 280 340 L 280 341 L 280 342 L 280 343 L 280 344 L 280 345 L 280 346 L 280 347 L 280 348 L 280 349 L 280 350 L 280 351 L 280 352 L 280 353 L 280 354 L 280 355 L 280 356 L 280 357 L 280 358 L 280 359 L 280 360 L 280 361 L 280 362 L 280 363 L 280 364 L 280 365 L 280 366 L 280 367 L 280 368 L 280 369 L 280 370 L 280 371 L 280 372 L 280 373 L 280 374 L 280 375 L 280 376 L 280 377 L 280 378 L 280 379 L 280 380 L 280 381 L 280 382 L 280 383 L 280 384 L 280 385 L 280 386 L 280 387 L 280 388 L 280 389 L 280 390 L 280 391 L 280 392 L 280 393 L 280 394 L 280 395 L 280 396 L 280 397 L 280 398 L 280 399 L 280 400 L 280 401 L 280 402 L 280 403 L 279 404 L 279 405 L 279 406 L 279 407 L 279 408 L 278 409 L 278 410 L 278 411 L 277 412 L 277 413 L 277 414 L 276 415 L 276 416 L 275 417 L 275 418 L 274 419 L 274 420 L 273 421 L 273 422 L 272 423 L 271 424 L 271 425 L 270 426 L 269 427 L 268 428 L 267 429 L 266 430 L 265 431 L 264 432 L 263 433 L 262 434 L 261 435 L 260 435 L 259 436 L 258 437 L 257 437 L 256 438 L 255 439 L 254 439 L 253 440 L 252 440 L 251 441 L 250 441 L 249 442 L 248 442 L 247 442 L 246 442 L 245 443 L 244 443 L 243 443 L 242 444 L 241 444 L 240 444 L 239 444 L 238 444 L 237 444 L 236 444 L 235 445 L 234 445 L 233 445 L 232 445 L 231 445 L 230 445 L 229 445 L 228 445 L 227 445 L 226 445 L 225 445 L 224 445 L 223 445 L 222 445 L 221 445 L 220 445 L 219 445 L 218 445 L 217 445 L 216 445 L 215 445 L 214 445 L 213 445 L 212 445 L 211 445 L 210 445 L 209 445 L 208 445 L 207 445 L 206 445 L 205 445 L 204 445 L 203 445 L 202 445 L 201 445 L 200 445 L 199 445 L 198 445 L 197 445 L 196 445 L 195 445 L 194 445 L 193 445 L 192 445 L 191 445 L 190 445 L 189 445 L 188 445 L 187 445 L 186 445 L 185 445 L 184 444 L 183 443 L 183 442 L 183 441 L 183 440 L 183 439 L 183 438 L 183 437 L 183 436 L 183 435 L 183 434 L 183 433 L 183 432 L 183 431 L 183 430 L 183 429 L 183 428 L 183 427 L 183 426 L 183 425 L 183 424 L 183 423 L 183 422 L 183 421 L 183 420 L 183 419 L 183 418 L 183 417 L 183 416 L 183 415 L 183 414 L 183 413 L 183 412 L 183 411 L 183 410 L 183 409 L 183 408 L 183 407 L 183 406 L 183 405 L 183 404 L 183 403 L 183 402 L 183 401 L 183 400 L 183 399 L 183 398 L 183 397 L 183 396 L 183 395 L 183 394 L 183 393 L 184 392 L 184 391 L 184 390 L 184 389 L 184 388 L 184 387 L 184 386 L 184 385 L 185 384 L 185 383 L 185 382 L 186 381 L 186 380 L 186 379 L 187 378 L 187 377 L 188 376 L 188 375 L 189 374 L 189 373 L 190 372 L 191 371 L 191 370 L 192 369 L 193 368 L 193 367 L 194 366 L 195 365 L 196 364 L 197 363 L 198 362 L 199 361 L 200 360 L 201 359 L 202 358 L 203 358 L 204 357 L 205 356 L 206 356 L 207 355 L 208 355 L 209 354 L 210 353 L 211 353 L 212 352 L 213 352 L 214 352 L 215 351 L 216 351 L 217 350 L 218 350 L 219 350 L 220 350 L 221 349 L 222 349 L 223 349 L 224 349 L 225 348 L 226 348 L 227 348 L 228 348 L 229 348 L 230 348 L 231 348 L 232 348 L 233 348 L 234 348 L 235 348 L 236 348 L 237 348 L 238 348 L 239 348 L 240 348 L 241 348 L 242 348 L 243 348 L 244 348 L 245 348 L 246 348 L 247 348 L 248 348 L 249 348 L 250 348 L 251 348 L 252 348 L 253 348 L 254 348 L 255 348 L 256 348 L 257 348 L 258 348 L 259 348 L 260 348 L 261 348 L 262 348 L 263 348 L 264 348 L 265 348 L 266 347 L 266 346 L 266 345 L 266 344 L 266 343 L 266 342 L 266 341 L 266 340 L 266 339 L 266 338 L 266 337 L 266 336 L 266 335 L 266 334 L 266 333 L 266 332 L 266 331 L 266 330 L 266 329 L 266 328 L 266 327 L 266 326 L 266 325 L 266 324 L 266 323 L 266 322 L 266 321 L 266 320 L 266 319 L 266 318 L 266 317 L 266 316 L 266 315 L 266 314 L 266 313 L 266 312 L 266 311 L 265 310 Z M 529 254 L 528 255 L 527 255 L 526 255 L 525 255 L 524 256 L 523 256 L 522 256 L 521 257 L 520 257 L 519 257 L 518 258 L 517 258 L 516 259 L 515 259 L 514 260 L 513 260 L 512 261 L 511 261 L 510 262 L 509 263 L 508 263 L 507 264 L 506 265 L 505 266 L 504 267 L 503 268 L 502 269 L 501 270 L 500 271 L 499 272 L 498 273 L 497 274 L 496 275 L 495 276 L 494 277 L 493 278 L 492 279 L 491 280 L 490 281 L 489 282 L 488 282 L 488 283 L 487 284 L 486 285 L 485 286 L 484 287 L 483 288 L 482 289 L 481 290 L 480 291 L 479 292 L 478 293 L 477 294 L 476 295 L 475 296 L 474 297 L 473 298 L 472 299 L 471 300 L 470 301 L 469 301 L 469 302 L 469 303 L 470 304 L 471 305 L 472 306 L 473 307 L 474 308 L 475 309 L 476 310 L 477 311 L 478 312 L 479 313 L 480 314 L 481 315 L 482 316 L 483 317 L 484 318 L 485 319 L 486 320 L 487 321 L 488 322 L 489 323 L 490 324 L 491 325 L 492 326 L 492 327 L 493 327 L 494 328 L 495 329 L 496 330 L 497 331 L 498 332 L 499 333 L 500 334 L 501 335 L 502 336 L 503 337 L 504 338 L 505 339 L 506 340 L 507 341 L 508 342 L 509 342 L 510 343 L 511 344 L 512 344 L 513 345 L 514 346 L 515 346 L 516 346 L 517 347 L 518 347 L 519 348 L 520 348 L 521 348 L 522 349 L 523 349 L 524 349 L 525 350 L 526 350 L 527 350 L 528 350 L 529 351 L 530 351 L 531 351 L 532 351 L 533 351 L 534 351 L 535 351 L 536 351 L 537 351 L 538 351 L 539 351 L 540 351 L 541 351 L 542 351 L 543 351 L 544 351 L 545 351 L 546 350 L 547 350 L 548 350 L 549 350 L 550 350 L 551 349 L 552 349 L 553 349 L 554 348 L 555 348 L 556 348 L 557 347 L 558 347 L 559 346 L 560 346 L 561 345 L 562 344 L 563 344 L 564 344 L 565 343 L 566 342 L 567 341 L 568 340 L 569 340 L 570 339 L 571 338 L 572 337 L 573 336 L 574 335 L 575 334 L 576 333 L 577 332 L 578 331 L 579 330 L 580 329 L 581 328 L 582 327 L 583 326 L 584 325 L 585 324 L 586 323 L 587 322 L 588 321 L 589 320 L 590 319 L 591 318 L 592 317 L 593 316 L 594 315 L 595 314 L 596 313 L 597 312 L 598 311 L 599 310 L 600 309 L 601 308 L 602 307 L 603 306 L 604 305 L 605 304 L 605 303 L 605 302 L 605 301 L 604 300 L 603 299 L 602 298 L 601 297 L 600 296 L 599 295 L 598 294 L 597 293 L 596 292 L 595 291 L 594 290 L 593 289 L 592 288 L 591 287 L 590 286 L 589 285 L 588 284 L 587 283 L 586 282 L 585 281 L 584 280 L 583 279 L 582 278 L 581 277 L 580 276 L 579 275 L 578 274 L 577 273 L 576 272 L 575 271 L 574 270 L 573 269 L 572 268 L 571 267 L 570 266 L 569 265 L 568 265 L 567 264 L 566 263 L 565 262 L 564 261 L 563 261 L 562 261 L 561 260 L 560 259 L 559 259 L 558 258 L 557 258 L 556 257 L 555 257 L 554 257 L 553 257 L 552 256 L 551 256 L 550 255 L 549 255 L 548 255 L 547 255 L 546 255 L 545 254 L 544 254 L 543 254 L 542 254 L 541 254 L 540 254 L 539 254 L 538 254 L 537 254 L 536 254 L 535 254 L 534 254 L 533 254 L 532 254 L 531 254 L 530 254 Z M 533 284 L 534 283 L 535 283 L 536 283 L 537 283 L 538 283 L 539 283 L 540 283 L 541 283 L 542 284 L 543 284 L 544 284 L 545 285 L 546 285 L 547 286 L 548 286 L 549 287 L 550 288 L 551 289 L 552 290 L 553 291 L 554 292 L 555 293 L 556 294 L 557 295 L 558 296 L 559 297 L 560 298 L 561 299 L 562 300 L 563 301 L 564 302 L 564 303 L 563 304 L 562 305 L 561 306 L 560 307 L 559 308 L 558 309 L 557 310 L 556 311 L 555 312 L 554 313 L 553 314 L 552 315 L 551 316 L 550 317 L 549 318 L 548 319 L 547 320 L 546 320 L 545 320 L 544 321 L 543 321 L 542 321 L 541 322 L 540 322 L 539 322 L 538 322 L 537 322 L 536 322 L 535 322 L 534 322 L 533 321 L 532 321 L 531 321 L 530 321 L 529 320 L 528 319 L 527 319 L 526 318 L 525 318 L 524 317 L 524 316 L 523 316 L 522 315 L 522 314 L 521 314 L 520 313 L 520 312 L 519 312 L 518 311 L 518 310 L 517 310 L 516 309 L 516 308 L 515 308 L 514 307 L 513 306 L 512 305 L 511 304 L 510 303 L 510 302 L 511 301 L 512 300 L 513 299 L 514 298 L 515 297 L 516 297 L 516 296 L 517 295 L 518 294 L 519 293 L 520 293 L 520 292 L 521 291 L 522 290 L 523 289 L 524 288 L 525 287 L 526 287 L 527 286 L 528 285 L 529 285 L 530 285 L 531 284 L 532 284 Z M 106 254 L 105 255 L 104 255 L 103 255 L 102 255 L 101 255 L 100 256 L 99 256 L 98 256 L 97 257 L 96 257 L 95 257 L 94 258 L 93 258 L 92 259 L 91 259 L 90 260 L 89 261 L 88 261 L 87 261 L 86 262 L 85 263 L 84 264 L 83 265 L 82 265 L 82 266 L 81 267 L 80 267 L 79 268 L 78 269 L 77 270 L 76 271 L 75 272 L 74 273 L 73 274 L 72 275 L 71 276 L 70 277 L 69 278 L 68 279 L 67 280 L 66 281 L 65 282 L 64 283 L 63 284 L 62 285 L 61 286 L 60 287 L 59 288 L 58 289 L 57 290 L 56 291 L 55 292 L 54 293 L 53 294 L 52 295 L 51 296 L 50 297 L 50 298 L 49 299 L 48 299 L 47 300 L 46 301 L 46 302 L 46 303 L 46 304 L 47 305 L 48 306 L 49 307 L 50 308 L 51 309 L 52 310 L 53 311 L 54 312 L 55 313 L 56 314 L 57 315 L 58 316 L 59 317 L 60 318 L 61 319 L 62 320 L 63 321 L 64 322 L 65 323 L 66 324 L 67 325 L 68 326 L 69 327 L 70 328 L 71 329 L 72 330 L 73 331 L 74 332 L 75 333 L 76 334 L 77 335 L 78 336 L 79 337 L 80 338 L 81 339 L 82 340 L 83 340 L 84 341 L 85 342 L 86 343 L 87 344 L 88 344 L 89 344 L 90 345 L 91 346 L 92 346 L 93 347 L 94 347 L 95 348 L 96 348 L 97 348 L 98 349 L 99 349 L 100 349 L 101 350 L 102 350 L 103 350 L 104 350 L 105 350 L 106 351 L 107 351 L 108 351 L 109 351 L 110 351 L 111 351 L 112 351 L 113 351 L 114 351 L 115 351 L 116 351 L 117 351 L 118 351 L 119 351 L 120 351 L 121 351 L 122 350 L 123 350 L 124 350 L 125 350 L 126 350 L 127 349 L 128 349 L 129 349 L 130 348 L 131 348 L 132 348 L 133 347 L 134 347 L 135 346 L 136 346 L 137 345 L 138 345 L 139 344 L 140 344 L 141 343 L 142 342 L 143 342 L 144 341 L 145 340 L 146 339 L 147 338 L 148 337 L 149 336 L 150 335 L 151 334 L 152 333 L 153 332 L 154 331 L 155 330 L 156 329 L 157 328 L 158 327 L 159 326 L 160 325 L 161 324 L 162 323 L 163 322 L 164 321 L 165 320 L 166 319 L 167 318 L 168 317 L 169 316 L 170 315 L 171 314 L 172 313 L 173 312 L 174 311 L 175 310 L 176 309 L 177 308 L 178 307 L 179 306 L 180 305 L 181 304 L 182 304 L 182 303 L 182 302 L 182 301 L 181 301 L 180 300 L 179 299 L 178 298 L 177 297 L 176 296 L 175 295 L 174 294 L 173 293 L 172 292 L 171 291 L 170 290 L 169 289 L 168 288 L 167 287 L 166 286 L 165 285 L 164 284 L 163 283 L 162 282 L 161 281 L 161 280 L 160 280 L 159 279 L 158 278 L 157 277 L 156 276 L 155 275 L 154 274 L 153 273 L 152 272 L 151 271 L 150 270 L 149 269 L 148 268 L 147 267 L 146 266 L 145 265 L 144 264 L 143 263 L 142 263 L 141 262 L 140 261 L 139 261 L 138 260 L 137 259 L 136 259 L 135 259 L 134 258 L 133 258 L 132 257 L 131 257 L 130 257 L 129 256 L 128 256 L 127 256 L 126 255 L 125 255 L 124 255 L 123 255 L 122 255 L 121 254 L 120 254 L 119 254 L 118 254 L 117 254 L 116 254 L 115 254 L 114 254 L 113 254 L 112 254 L 111 254 L 110 254 L 109 254 L 108 254 L 107 254 Z M 109 284 L 110 283 L 111 283 L 112 283 L 113 283 L 114 283 L 115 283 L 116 283 L 117 283 L 118 284 L 119 284 L 120 284 L 121 285 L 122 285 L 123 286 L 124 286 L 125 287 L 126 287 L 127 288 L 127 289 L 128 289 L 129 290 L 129 291 L 130 291 L 131 292 L 132 293 L 133 294 L 133 295 L 134 295 L 135 296 L 135 297 L 136 297 L 137 298 L 138 299 L 139 300 L 140 301 L 141 302 L 141 303 L 140 304 L 139 305 L 138 306 L 137 307 L 136 308 L 135 309 L 134 310 L 133 311 L 132 312 L 131 313 L 130 314 L 129 315 L 128 316 L 127 316 L 127 317 L 126 318 L 125 318 L 124 319 L 123 319 L 122 320 L 121 320 L 120 321 L 119 321 L 118 321 L 117 322 L 116 322 L 115 322 L 114 322 L 113 322 L 112 322 L 111 322 L 110 322 L 109 321 L 108 321 L 107 321 L 106 320 L 105 320 L 104 320 L 103 319 L 102 318 L 101 317 L 100 316 L 99 315 L 98 314 L 97 313 L 96 312 L 95 311 L 94 310 L 93 309 L 92 308 L 91 307 L 90 306 L 89 305 L 88 304 L 87 303 L 87 302 L 88 301 L 89 300 L 90 299 L 91 298 L 92 297 L 93 296 L 94 295 L 95 294 L 96 293 L 97 292 L 98 291 L 99 290 L 100 289 L 101 288 L 102 287 L 103 286 L 104 285 L 105 285 L 106 285 L 107 284 L 108 284 Z M 147 121 L 146 122 L 145 122 L 145 123 L 144 124 L 144 125 L 144 126 L 144 127 L 144 128 L 144 129 L 144 130 L 144 131 L 144 132 L 144 133 L 144 134 L 144 135 L 144 136 L 144 137 L 144 138 L 144 139 L 144 140 L 144 141 L 144 142 L 144 143 L 144 144 L 144 145 L 144 146 L 144 147 L 144 148 L 144 149 L 144 150 L 144 151 L 144 152 L 144 153 L 144 154 L 144 155 L 144 156 L 144 157 L 144 158 L 144 159 L 144 160 L 144 161 L 144 162 L 144 163 L 144 164 L 144 165 L 144 166 L 144 167 L 144 168 L 144 169 L 144 170 L 144 171 L 144 172 L 144 173 L 144 174 L 144 175 L 144 176 L 144 177 L 144 178 L 144 179 L 144 180 L 144 181 L 144 182 L 144 183 L 144 184 L 144 185 L 144 186 L 144 187 L 144 188 L 144 189 L 144 190 L 144 191 L 144 192 L 144 193 L 144 194 L 144 195 L 144 196 L 144 197 L 144 198 L 144 199 L 144 200 L 144 201 L 144 202 L 144 203 L 144 204 L 144 205 L 144 206 L 144 207 L 144 208 L 144 209 L 144 210 L 144 211 L 145 212 L 145 213 L 145 214 L 145 215 L 145 216 L 145 217 L 145 218 L 145 219 L 145 220 L 146 221 L 146 222 L 146 223 L 146 224 L 146 225 L 146 226 L 146 227 L 147 228 L 147 229 L 147 230 L 148 231 L 148 232 L 148 233 L 148 234 L 148 235 L 149 236 L 150 237 L 150 238 L 150 239 L 150 240 L 151 241 L 152 242 L 152 243 L 152 244 L 153 245 L 153 246 L 154 247 L 154 248 L 154 249 L 155 250 L 156 251 L 156 252 L 157 253 L 157 254 L 158 255 L 159 256 L 159 257 L 160 258 L 161 259 L 162 260 L 162 261 L 163 262 L 164 263 L 165 264 L 165 265 L 166 266 L 167 267 L 168 268 L 169 269 L 170 270 L 171 271 L 172 272 L 173 273 L 174 274 L 175 274 L 176 275 L 176 276 L 177 276 L 178 277 L 179 278 L 180 278 L 181 279 L 182 280 L 183 281 L 184 281 L 185 282 L 186 283 L 187 283 L 188 284 L 189 285 L 190 285 L 191 285 L 192 286 L 193 287 L 194 287 L 195 287 L 196 288 L 197 288 L 198 289 L 199 289 L 200 289 L 201 290 L 202 291 L 203 291 L 204 291 L 205 291 L 206 291 L 207 292 L 208 292 L 209 293 L 210 293 L 211 293 L 212 293 L 213 293 L 214 293 L 215 294 L 216 294 L 217 295 L 218 295 L 219 295 L 220 295 L 221 295 L 222 295 L 223 295 L 224 295 L 225 295 L 226 295 L 227 295 L 228 295 L 229 295 L 230 295 L 231 295 L 232 295 L 233 295 L 234 295 L 235 295 L 236 295 L 237 295 L 238 295 L 239 295 L 240 295 L 241 295 L 242 295 L 243 295 L 244 295 L 245 295 L 246 295 L 247 295 L 248 295 L 249 295 L 250 295 L 251 295 L 252 295 L 253 295 L 254 295 L 255 295 L 256 295 L 257 295 L 258 295 L 259 295 L 260 295 L 261 295 L 262 295 L 263 295 L 264 295 L 265 295 L 266 294 L 266 293 L 266 292 L 266 291 L 266 290 L 266 289 L 266 288 L 266 287 L 266 286 L 266 285 L 266 284 L 266 283 L 266 282 L 266 281 L 266 280 L 266 279 L 266 278 L 266 277 L 266 276 L 266 275 L 266 274 L 266 273 L 266 272 L 266 271 L 266 270 L 266 269 L 266 268 L 266 267 L 266 266 L 266 265 L 266 264 L 266 263 L 266 262 L 266 261 L 266 260 L 266 259 L 266 258 L 265 257 L 264 257 L 263 257 L 262 257 L 261 257 L 260 257 L 259 257 L 258 257 L 257 257 L 256 257 L 255 257 L 254 257 L 253 257 L 252 257 L 251 257 L 250 257 L 249 257 L 248 257 L 247 257 L 246 257 L 245 257 L 244 257 L 243 257 L 242 257 L 241 257 L 240 257 L 239 257 L 238 257 L 237 257 L 236 257 L 235 257 L 234 257 L 233 257 L 232 257 L 231 257 L 230 257 L 229 257 L 228 257 L 227 257 L 226 257 L 225 256 L 224 256 L 223 256 L 222 256 L 221 256 L 220 255 L 219 255 L 218 255 L 217 255 L 216 254 L 215 254 L 214 254 L 213 253 L 212 253 L 211 252 L 210 252 L 209 251 L 208 251 L 207 250 L 206 250 L 205 249 L 204 248 L 203 247 L 202 247 L 201 246 L 200 245 L 199 244 L 198 244 L 197 243 L 197 242 L 196 241 L 195 240 L 194 239 L 193 238 L 193 237 L 192 236 L 191 235 L 191 234 L 190 233 L 189 232 L 189 231 L 188 230 L 188 229 L 187 228 L 187 227 L 186 226 L 186 225 L 186 224 L 185 223 L 185 222 L 185 221 L 184 220 L 184 219 L 184 218 L 184 217 L 184 216 L 184 215 L 184 214 L 184 213 L 183 212 L 183 211 L 183 210 L 183 209 L 183 208 L 183 207 L 183 206 L 183 205 L 183 204 L 183 203 L 183 202 L 183 201 L 183 200 L 183 199 L 183 198 L 183 197 L 183 196 L 183 195 L 183 194 L 183 193 L 183 192 L 183 191 L 183 190 L 183 189 L 183 188 L 183 187 L 183 186 L 183 185 L 183 184 L 183 183 L 183 182 L 183 181 L 183 180 L 183 179 L 183 178 L 183 177 L 183 176 L 183 175 L 183 174 L 183 173 L 183 172 L 183 171 L 183 170 L 183 169 L 183 168 L 183 167 L 183 166 L 183 165 L 183 164 L 183 163 L 183 162 L 184 161 L 185 160 L 186 160 L 187 160 L 188 160 L 189 160 L 190 160 L 191 160 L 192 160 L 193 160 L 194 160 L 195 160 L 196 160 L 197 160 L 198 160 L 199 160 L 200 160 L 201 160 L 202 160 L 203 160 L 204 160 L 205 160 L 206 160 L 207 160 L 208 160 L 209 160 L 210 160 L 211 160 L 212 160 L 213 160 L 214 160 L 215 160 L 216 160 L 217 160 L 218 160 L 219 160 L 220 160 L 221 160 L 222 160 L 223 160 L 224 160 L 225 160 L 226 160 L 227 160 L 228 160 L 229 160 L 230 160 L 231 160 L 232 160 L 233 160 L 234 160 L 235 160 L 236 161 L 237 161 L 238 161 L 239 161 L 240 161 L 241 161 L 242 161 L 243 162 L 244 162 L 245 162 L 246 162 L 247 163 L 248 163 L 249 163 L 250 164 L 251 164 L 252 165 L 253 165 L 254 166 L 255 166 L 256 167 L 257 168 L 258 168 L 259 169 L 260 170 L 261 170 L 262 171 L 263 172 L 264 173 L 265 174 L 266 174 L 267 175 L 267 176 L 268 177 L 269 178 L 270 179 L 270 180 L 271 181 L 272 182 L 273 183 L 273 184 L 274 185 L 274 186 L 275 187 L 275 188 L 276 189 L 276 190 L 277 191 L 277 192 L 277 193 L 278 194 L 278 195 L 278 196 L 278 197 L 279 198 L 279 199 L 279 200 L 279 201 L 280 202 L 280 203 L 280 204 L 280 205 L 280 206 L 280 207 L 280 208 L 280 209 L 280 210 L 280 211 L 280 212 L 280 213 L 280 214 L 280 215 L 280 216 L 280 217 L 280 218 L 280 219 L 280 220 L 280 221 L 280 222 L 280 223 L 280 224 L 280 225 L 280 226 L 280 227 L 280 228 L 280 229 L 280 230 L 280 231 L 280 232 L 280 233 L 280 234 L 280 235 L 280 236 L 280 237 L 280 238 L 280 239 L 280 240 L 280 241 L 280 242 L 280 243 L 280 244 L 280 245 L 280 246 L 280 247 L 280 248 L 280 249 L 280 250 L 280 251 L 280 252 L 280 253 L 280 254 L 280 255 L 280 256 L 280 257 L 280 258 L 280 259 L 280 260 L 280 261 L 280 262 L 280 263 L 280 264 L 280 265 L 280 266 L 280 267 L 280 268 L 280 269 L 280 270 L 280 271 L 280 272 L 280 273 L 280 274 L 280 275 L 280 276 L 280 277 L 280 278 L 280 279 L 280 280 L 280 281 L 280 282 L 280 283 L 280 284 L 280 285 L 280 286 L 280 287 L 280 288 L 280 289 L 280 290 L 280 291 L 280 292 L 280 293 L 280 294 L 280 295 L 281 295 L 282 295 L 283 295 L 284 295 L 285 295 L 286 295 L 287 295 L 288 295 L 289 295 L 290 295 L 291 295 L 292 295 L 293 295 L 294 295 L 295 295 L 296 295 L 297 295 L 298 295 L 299 295 L 300 295 L 301 295 L 302 295 L 303 295 L 304 295 L 305 295 L 306 295 L 307 295 L 308 295 L 309 295 L 310 295 L 311 295 L 312 295 L 313 295 L 314 295 L 315 295 L 316 295 L 317 295 L 318 295 L 319 295 L 320 295 L 321 295 L 322 295 L 323 295 L 324 295 L 325 295 L 326 295 L 327 295 L 328 295 L 329 295 L 330 295 L 331 295 L 332 295 L 333 295 L 334 295 L 335 295 L 336 295 L 337 295 L 338 295 L 339 295 L 340 295 L 341 295 L 342 295 L 343 295 L 344 295 L 345 295 L 346 295 L 347 295 L 348 295 L 349 295 L 350 295 L 351 295 L 352 295 L 353 295 L 354 295 L 355 295 L 356 295 L 357 295 L 358 295 L 359 295 L 360 295 L 361 295 L 362 295 L 363 295 L 364 295 L 365 295 L 366 295 L 367 295 L 368 295 L 369 295 L 370 295 L 371 295 L 371 294 L 371 293 L 371 292 L 371 291 L 371 290 L 371 289 L 371 288 L 371 287 L 371 286 L 371 285 L 371 284 L 371 283 L 371 282 L 371 281 L 371 280 L 371 279 L 371 278 L 371 277 L 371 276 L 371 275 L 371 274 L 371 273 L 371 272 L 371 271 L 371 270 L 371 269 L 371 268 L 371 267 L 371 266 L 371 265 L 371 264 L 371 263 L 371 262 L 371 261 L 371 260 L 371 259 L 371 258 L 371 257 L 371 256 L 371 255 L 371 254 L 371 253 L 371 252 L 371 251 L 371 250 L 371 249 L 371 248 L 371 247 L 371 246 L 371 245 L 371 244 L 371 243 L 371 242 L 371 241 L 371 240 L 371 239 L 371 238 L 371 237 L 371 236 L 371 235 L 371 234 L 371 233 L 371 232 L 371 231 L 371 230 L 371 229 L 371 228 L 371 227 L 371 226 L 371 225 L 371 224 L 371 223 L 371 222 L 371 221 L 371 220 L 371 219 L 371 218 L 371 217 L 371 216 L 371 215 L 371 214 L 371 213 L 371 212 L 371 211 L 371 210 L 371 209 L 371 208 L 371 207 L 371 206 L 371 205 L 371 204 L 371 203 L 371 202 L 372 201 L 372 200 L 372 199 L 372 198 L 373 197 L 373 196 L 373 195 L 373 194 L 374 193 L 374 192 L 374 191 L 375 190 L 375 189 L 376 188 L 376 187 L 377 186 L 377 185 L 378 184 L 378 183 L 379 182 L 380 181 L 381 180 L 381 179 L 382 178 L 383 177 L 384 176 L 385 175 L 386 174 L 387 173 L 388 172 L 389 171 L 390 170 L 391 170 L 392 169 L 393 168 L 394 168 L 395 167 L 396 166 L 397 166 L 398 165 L 399 165 L 400 165 L 401 164 L 402 163 L 403 163 L 404 163 L 405 163 L 406 162 L 407 162 L 408 161 L 409 161 L 410 161 L 411 161 L 412 161 L 413 161 L 414 161 L 415 161 L 416 160 L 417 160 L 418 160 L 419 160 L 420 160 L 421 160 L 422 160 L 423 160 L 424 160 L 425 160 L 426 160 L 427 160 L 428 160 L 429 160 L 430 160 L 431 160 L 432 160 L 433 160 L 434 160 L 435 160 L 436 160 L 437 160 L 438 160 L 439 160 L 440 160 L 441 160 L 442 160 L 443 160 L 444 160 L 445 160 L 446 160 L 447 160 L 448 160 L 449 160 L 450 160 L 451 160 L 452 160 L 453 160 L 454 160 L 455 160 L 456 160 L 457 160 L 458 160 L 459 160 L 460 160 L 461 160 L 462 160 L 463 160 L 464 160 L 465 160 L 466 160 L 467 161 L 468 162 L 468 163 L 468 164 L 468 165 L 468 166 L 468 167 L 468 168 L 468 169 L 468 170 L 468 171 L 468 172 L 468 173 L 468 174 L 468 175 L 468 176 L 468 177 L 468 178 L 468 179 L 468 180 L 468 181 L 468 182 L 468 183 L 468 184 L 468 185 L 468 186 L 468 187 L 468 188 L 468 189 L 468 190 L 468 191 L 468 192 L 468 193 L 468 194 L 468 195 L 468 196 L 468 197 L 468 198 L 468 199 L 468 200 L 468 201 L 468 202 L 468 203 L 468 204 L 468 205 L 468 206 L 468 207 L 468 208 L 468 209 L 468 210 L 468 211 L 468 212 L 467 213 L 467 214 L 467 215 L 467 216 L 467 217 L 467 218 L 467 219 L 467 220 L 466 221 L 466 222 L 466 223 L 465 224 L 465 225 L 465 226 L 464 227 L 464 228 L 463 229 L 463 230 L 462 231 L 462 232 L 461 233 L 460 234 L 460 235 L 459 236 L 458 237 L 458 238 L 457 239 L 456 240 L 455 241 L 454 242 L 453 243 L 452 244 L 451 245 L 450 246 L 449 246 L 448 247 L 447 248 L 446 249 L 445 250 L 444 250 L 443 250 L 442 251 L 441 252 L 440 252 L 439 253 L 438 253 L 437 253 L 436 254 L 435 254 L 434 255 L 433 255 L 432 255 L 431 255 L 430 256 L 429 256 L 428 256 L 427 256 L 426 257 L 425 257 L 424 257 L 423 257 L 422 257 L 421 257 L 420 257 L 419 257 L 418 257 L 417 257 L 416 257 L 415 257 L 414 257 L 413 257 L 412 257 L 411 257 L 410 257 L 409 257 L 408 257 L 407 257 L 406 257 L 405 257 L 404 257 L 403 257 L 402 257 L 401 257 L 400 257 L 399 257 L 398 257 L 397 257 L 396 257 L 395 257 L 394 257 L 393 257 L 392 257 L 391 257 L 390 257 L 389 257 L 388 257 L 387 257 L 386 257 L 385 258 L 385 259 L 385 260 L 385 261 L 385 262 L 385 263 L 385 264 L 385 265 L 385 266 L 385 267 L 385 268 L 385 269 L 385 270 L 385 271 L 385 272 L 385 273 L 385 274 L 385 275 L 385 276 L 385 277 L 385 278 L 385 279 L 385 280 L 385 281 L 385 282 L 385 283 L 385 284 L 385 285 L 385 286 L 385 287 L 385 288 L 385 289 L 385 290 L 385 291 L 385 292 L 385 293 L 385 294 L 386 295 L 387 296 L 388 295 L 389 295 L 390 295 L 391 295 L 392 295 L 393 295 L 394 295 L 395 295 L 396 295 L 397 295 L 398 295 L 399 295 L 400 295 L 401 295 L 402 295 L 403 295 L 404 295 L 405 295 L 406 295 L 407 295 L 408 295 L 409 295 L 410 295 L 411 295 L 412 295 L 413 295 L 414 295 L 415 295 L 416 295 L 417 295 L 418 295 L 419 295 L 420 295 L 421 295 L 422 295 L 423 295 L 424 295 L 425 295 L 426 295 L 427 295 L 428 295 L 429 295 L 430 295 L 431 295 L 432 295 L 433 295 L 434 294 L 435 294 L 436 294 L 437 294 L 438 293 L 439 293 L 440 293 L 441 293 L 442 293 L 443 292 L 444 292 L 445 292 L 446 291 L 447 291 L 448 291 L 449 291 L 450 290 L 451 290 L 452 289 L 453 289 L 454 288 L 455 288 L 456 287 L 457 287 L 458 287 L 459 286 L 460 286 L 461 285 L 462 284 L 463 284 L 464 283 L 465 283 L 466 282 L 467 281 L 468 281 L 469 280 L 470 279 L 471 279 L 472 278 L 473 277 L 474 276 L 475 276 L 475 275 L 476 274 L 477 274 L 478 273 L 479 272 L 480 271 L 481 270 L 482 269 L 483 268 L 484 267 L 485 266 L 486 265 L 486 264 L 487 263 L 488 262 L 489 261 L 490 260 L 490 259 L 491 258 L 492 257 L 492 256 L 493 255 L 494 254 L 494 253 L 495 252 L 495 251 L 496 250 L 497 249 L 497 248 L 497 247 L 498 246 L 498 245 L 499 244 L 499 243 L 500 242 L 500 241 L 501 240 L 501 239 L 501 238 L 501 237 L 502 236 L 502 235 L 503 234 L 503 233 L 503 232 L 503 231 L 504 230 L 504 229 L 504 228 L 505 227 L 505 226 L 505 225 L 505 224 L 505 223 L 505 222 L 506 221 L 506 220 L 506 219 L 506 218 L 506 217 L 506 216 L 506 215 L 506 214 L 506 213 L 506 212 L 507 211 L 507 210 L 507 209 L 507 208 L 507 207 L 507 206 L 507 205 L 507 204 L 507 203 L 507 202 L 507 201 L 507 200 L 507 199 L 507 198 L 507 197 L 507 196 L 507 195 L 507 194 L 507 193 L 507 192 L 507 191 L 507 190 L 507 189 L 507 188 L 507 187 L 507 186 L 507 185 L 507 184 L 507 183 L 507 182 L 507 181 L 507 180 L 507 179 L 507 178 L 507 177 L 507 176 L 507 175 L 507 174 L 507 173 L 507 172 L 507 171 L 507 170 L 507 169 L 507 168 L 507 167 L 507 166 L 507 165 L 507 164 L 507 163 L 507 162 L 507 161 L 507 160 L 507 159 L 507 158 L 507 157 L 507 156 L 507 155 L 507 154 L 507 153 L 507 152 L 507 151 L 507 150 L 507 149 L 507 148 L 507 147 L 507 146 L 507 145 L 507 144 L 507 143 L 507 142 L 507 141 L 507 140 L 507 139 L 507 138 L 507 137 L 507 136 L 507 135 L 507 134 L 507 133 L 507 132 L 507 131 L 507 130 L 507 129 L 507 128 L 507 127 L 507 126 L 507 125 L 507 124 L 506 123 L 506 122 L 505 122 L 504 121 L 503 121 L 502 121 L 501 121 L 500 121 L 499 121 L 498 121 L 497 121 L 496 121 L 495 121 L 494 121 L 493 121 L 492 121 L 491 121 L 490 121 L 489 121 L 488 121 L 487 121 L 486 121 L 485 121 L 484 121 L 483 121 L 482 121 L 481 121 L 480 121 L 479 121 L 478 121 L 477 121 L 476 121 L 475 121 L 474 121 L 473 121 L 472 121 L 471 121 L 470 121 L 469 121 L 468 121 L 467 121 L 466 121 L 465 121 L 464 121 L 463 121 L 462 121 L 461 121 L 460 121 L 459 121 L 458 121 L 457 121 L 456 121 L 455 121 L 454 121 L 453 121 L 452 121 L 451 121 L 450 121 L 449 121 L 448 121 L 447 121 L 446 121 L 445 121 L 444 121 L 443 121 L 442 121 L 441 121 L 440 121 L 439 121 L 438 121 L 437 121 L 436 121 L 435 121 L 434 121 L 433 121 L 432 121 L 431 121 L 430 121 L 429 121 L 428 121 L 427 122 L 426 122 L 425 121 L 424 121 L 423 121 L 422 121 L 421 121 L 420 121 L 419 121 L 418 121 L 417 122 L 416 122 L 415 122 L 414 122 L 413 122 L 412 122 L 411 122 L 410 122 L 409 122 L 408 122 L 407 123 L 406 123 L 405 123 L 404 123 L 403 123 L 402 123 L 401 123 L 400 124 L 399 124 L 398 124 L 397 125 L 396 125 L 395 125 L 394 125 L 393 125 L 392 126 L 391 127 L 390 127 L 389 127 L 388 127 L 387 128 L 386 128 L 385 129 L 384 129 L 383 129 L 382 130 L 381 131 L 380 131 L 379 131 L 378 132 L 377 133 L 376 133 L 375 134 L 374 134 L 373 135 L 372 136 L 371 136 L 370 137 L 369 138 L 368 138 L 367 139 L 366 140 L 365 141 L 364 142 L 363 142 L 363 143 L 362 144 L 361 144 L 360 145 L 359 146 L 358 147 L 357 148 L 356 149 L 355 150 L 354 151 L 354 152 L 353 153 L 352 153 L 352 154 L 351 155 L 350 156 L 350 157 L 349 158 L 348 159 L 348 160 L 347 161 L 346 162 L 345 163 L 345 164 L 344 165 L 344 166 L 343 167 L 343 168 L 342 169 L 342 170 L 341 171 L 341 172 L 340 173 L 340 174 L 339 175 L 339 176 L 339 177 L 338 178 L 338 179 L 337 180 L 337 181 L 337 182 L 337 183 L 336 184 L 336 185 L 335 186 L 335 187 L 335 188 L 335 189 L 335 190 L 335 191 L 334 192 L 334 193 L 333 194 L 333 195 L 333 196 L 333 197 L 333 198 L 333 199 L 333 200 L 333 201 L 333 202 L 333 203 L 333 204 L 333 205 L 333 206 L 333 207 L 333 208 L 333 209 L 333 210 L 333 211 L 333 212 L 333 213 L 333 214 L 333 215 L 333 216 L 333 217 L 333 218 L 333 219 L 333 220 L 333 221 L 333 222 L 333 223 L 333 224 L 333 225 L 333 226 L 333 227 L 333 228 L 333 229 L 333 230 L 333 231 L 333 232 L 333 233 L 333 234 L 333 235 L 333 236 L 333 237 L 333 238 L 333 239 L 333 240 L 333 241 L 333 242 L 333 243 L 333 244 L 333 245 L 333 246 L 333 247 L 333 248 L 333 249 L 333 250 L 333 251 L 333 252 L 333 253 L 333 254 L 333 255 L 332 256 L 331 257 L 330 257 L 329 257 L 328 257 L 327 257 L 326 257 L 325 257 L 324 257 L 323 257 L 322 257 L 321 257 L 320 257 L 319 256 L 318 255 L 318 254 L 318 253 L 318 252 L 318 251 L 318 250 L 318 249 L 318 248 L 318 247 L 318 246 L 318 245 L 318 244 L 318 243 L 318 242 L 318 241 L 318 240 L 318 239 L 318 238 L 318 237 L 318 236 L 318 235 L 318 234 L 318 233 L 318 232 L 318 231 L 318 230 L 318 229 L 318 228 L 318 227 L 318 226 L 318 225 L 318 224 L 318 223 L 318 222 L 318 221 L 318 220 L 318 219 L 318 218 L 318 217 L 318 216 L 318 215 L 318 214 L 318 213 L 318 212 L 318 211 L 318 210 L 318 209 L 318 208 L 318 207 L 318 206 L 318 205 L 318 204 L 318 203 L 318 202 L 318 201 L 318 200 L 318 199 L 318 198 L 318 197 L 318 196 L 318 195 L 318 194 L 317 193 L 317 192 L 317 191 L 316 190 L 316 189 L 316 188 L 316 187 L 316 186 L 315 185 L 315 184 L 314 183 L 314 182 L 314 181 L 314 180 L 314 179 L 313 178 L 312 177 L 312 176 L 312 175 L 311 174 L 311 173 L 310 172 L 310 171 L 310 170 L 309 169 L 308 168 L 308 167 L 307 166 L 307 165 L 306 164 L 306 163 L 305 162 L 304 161 L 303 160 L 303 159 L 302 158 L 301 157 L 301 156 L 300 155 L 299 154 L 299 153 L 298 153 L 297 152 L 297 151 L 296 150 L 295 149 L 294 148 L 293 147 L 292 146 L 291 145 L 290 144 L 289 143 L 288 142 L 287 142 L 286 141 L 285 140 L 284 139 L 283 138 L 282 138 L 281 137 L 280 136 L 279 136 L 278 135 L 277 134 L 276 134 L 275 133 L 274 133 L 273 132 L 272 131 L 271 131 L 270 131 L 269 130 L 268 129 L 267 129 L 266 129 L 265 128 L 264 128 L 263 127 L 262 127 L 261 127 L 260 127 L 259 126 L 258 125 L 257 125 L 256 125 L 255 125 L 254 125 L 253 124 L 252 124 L 251 124 L 250 123 L 249 123 L 248 123 L 247 123 L 246 123 L 245 123 L 244 122 L 243 122 L 242 122 L 241 122 L 240 122 L 239 122 L 238 122 L 237 122 L 236 122 L 235 122 L 234 121 L 233 121 L 232 121 L 231 121 L 230 121 L 229 121 L 228 121 L 227 121 L 226 121 L 225 121 L 224 121 L 223 121 L 222 121 L 221 121 L 220 121 L 219 121 L 218 121 L 217 121 L 216 121 L 215 121 L 214 121 L 213 121 L 212 121 L 211 121 L 210 121 L 209 121 L 208 121 L 207 121 L 206 121 L 205 121 L 204 121 L 203 121 L 202 121 L 201 121 L 200 121 L 199 121 L 198 121 L 197 121 L 196 121 L 195 121 L 194 121 L 193 121 L 192 121 L 191 121 L 190 121 L 189 121 L 188 121 L 187 121 L 186 121 L 185 121 L 184 121 L 183 121 L 182 121 L 181 121 L 180 121 L 179 121 L 178 121 L 177 121 L 176 121 L 175 121 L 174 121 L 173 121 L 172 121 L 171 121 L 170 121 L 169 121 L 168 121 L 167 121 L 166 121 L 165 121 L 164 121 L 163 121 L 162 121 L 161 121 L 160 121 L 159 121 L 158 121 L 157 121 L 156 121 L 155 121 L 154 121 L 153 121 L 152 121 L 151 121 L 150 121 L 149 122 L 148 121 Z M 326 22 L 325 23 L 324 23 L 323 24 L 322 25 L 322 26 L 321 27 L 320 27 L 319 28 L 318 29 L 317 30 L 316 31 L 315 32 L 314 33 L 313 34 L 312 35 L 311 36 L 310 37 L 309 38 L 308 39 L 307 40 L 307 41 L 306 42 L 305 42 L 304 43 L 303 44 L 302 45 L 301 46 L 300 47 L 299 48 L 298 49 L 297 50 L 296 51 L 295 52 L 294 53 L 293 54 L 292 55 L 291 56 L 290 57 L 290 58 L 289 59 L 288 59 L 288 60 L 287 61 L 286 62 L 285 63 L 284 64 L 284 65 L 284 66 L 283 67 L 282 68 L 282 69 L 282 70 L 281 71 L 280 72 L 280 73 L 280 74 L 279 75 L 279 76 L 279 77 L 278 78 L 278 79 L 278 80 L 278 81 L 278 82 L 277 83 L 277 84 L 277 85 L 277 86 L 277 87 L 277 88 L 277 89 L 277 90 L 277 91 L 277 92 L 277 93 L 277 94 L 277 95 L 277 96 L 277 97 L 277 98 L 278 99 L 278 100 L 278 101 L 278 102 L 278 103 L 279 104 L 279 105 L 279 106 L 280 107 L 280 108 L 280 109 L 281 110 L 281 111 L 282 112 L 282 113 L 283 114 L 284 115 L 284 116 L 284 117 L 285 118 L 286 119 L 286 120 L 287 121 L 288 122 L 289 123 L 290 124 L 291 125 L 292 126 L 293 127 L 294 128 L 295 129 L 296 130 L 297 131 L 298 132 L 299 133 L 300 134 L 301 135 L 302 136 L 303 137 L 304 138 L 305 139 L 306 140 L 307 141 L 308 142 L 309 143 L 310 144 L 311 145 L 312 146 L 313 147 L 314 148 L 315 149 L 316 150 L 317 151 L 318 152 L 319 153 L 320 154 L 321 155 L 322 156 L 323 157 L 324 158 L 325 159 L 326 159 L 327 159 L 327 158 L 328 157 L 329 156 L 330 155 L 331 154 L 332 153 L 333 152 L 334 151 L 335 150 L 336 149 L 337 148 L 338 147 L 339 146 L 340 145 L 341 144 L 342 143 L 343 142 L 344 141 L 345 140 L 346 139 L 347 138 L 348 137 L 349 136 L 350 135 L 351 134 L 352 133 L 353 132 L 354 131 L 355 130 L 356 129 L 357 128 L 358 127 L 359 126 L 360 125 L 361 124 L 362 123 L 363 122 L 364 121 L 365 120 L 365 119 L 366 118 L 367 117 L 367 116 L 368 115 L 368 114 L 369 113 L 369 112 L 369 111 L 370 110 L 371 109 L 371 108 L 371 107 L 372 106 L 372 105 L 372 104 L 373 103 L 373 102 L 373 101 L 373 100 L 373 99 L 374 98 L 374 97 L 374 96 L 374 95 L 374 94 L 374 93 L 374 92 L 374 91 L 374 90 L 374 89 L 374 88 L 374 87 L 374 86 L 374 85 L 374 84 L 374 83 L 373 82 L 373 81 L 373 80 L 373 79 L 373 78 L 372 77 L 372 76 L 371 75 L 371 74 L 371 73 L 371 72 L 370 71 L 370 70 L 369 69 L 369 68 L 368 67 L 367 66 L 367 65 L 366 64 L 366 63 L 365 62 L 364 61 L 363 60 L 363 59 L 362 58 L 361 57 L 360 56 L 359 55 L 358 54 L 357 53 L 356 52 L 355 51 L 354 50 L 353 49 L 352 48 L 351 47 L 350 46 L 349 45 L 348 44 L 347 43 L 346 42 L 345 41 L 344 40 L 343 39 L 342 38 L 341 37 L 340 36 L 339 35 L 338 34 L 337 33 L 336 32 L 335 31 L 334 30 L 333 29 L 332 28 L 331 27 L 330 26 L 329 25 L 328 24 L 327 23 Z M 324 65 L 325 64 L 326 64 L 327 65 L 328 66 L 329 67 L 330 68 L 331 69 L 332 70 L 333 71 L 334 72 L 335 73 L 336 74 L 337 75 L 338 76 L 339 77 L 340 78 L 341 79 L 342 80 L 343 81 L 343 82 L 343 83 L 344 84 L 344 85 L 344 86 L 345 87 L 345 88 L 345 89 L 345 90 L 345 91 L 345 92 L 345 93 L 345 94 L 345 95 L 344 96 L 344 97 L 343 98 L 343 99 L 342 100 L 342 101 L 341 102 L 341 103 L 340 104 L 339 104 L 339 105 L 338 106 L 337 107 L 336 108 L 335 108 L 335 109 L 334 110 L 333 110 L 333 111 L 332 112 L 331 113 L 330 114 L 329 115 L 328 116 L 327 117 L 326 118 L 325 118 L 324 117 L 323 116 L 322 115 L 321 114 L 320 113 L 320 112 L 319 112 L 318 111 L 318 110 L 317 110 L 316 109 L 315 108 L 314 107 L 313 106 L 312 105 L 311 104 L 310 103 L 310 102 L 309 101 L 309 100 L 308 99 L 307 98 L 307 97 L 307 96 L 307 95 L 306 94 L 306 93 L 306 92 L 306 91 L 306 90 L 306 89 L 306 88 L 306 87 L 307 86 L 307 85 L 307 84 L 308 83 L 308 82 L 308 81 L 309 80 L 310 79 L 311 78 L 312 77 L 313 76 L 314 75 L 315 74 L 316 73 L 317 72 L 318 71 L 319 70 L 320 69 L 321 68 L 322 67 L 323 66 Z" fill="#242428" fill-rule="evenodd"/>
</svg>
